<svg xmlns="http://www.w3.org/2000/svg" viewBox="0 0 1254 1254" width="512" height="512" role="img" aria-labelledby="logo-title">
  <title id="logo-title">Sports Vault</title>
  <defs>
    <linearGradient id="bg" x1="0" y1="0" x2="1" y2="1">
      <stop stop-color="#0b1722"/>
      <stop offset=".5" stop-color="#040c13"/>
      <stop offset="1" stop-color="#02070d"/>
    </linearGradient>
    <radialGradient id="glow">
      <stop stop-color="#00322f" stop-opacity=".22"/>
      <stop offset="1" stop-color="#000000" stop-opacity="0"/>
    </radialGradient>
    <linearGradient id="ring" gradientUnits="userSpaceOnUse" x1="360" y1="220" x2="924" y2="1000">
      <stop stop-color="#09ffe0"/>
      <stop offset=".42" stop-color="#00e3b5"/>
      <stop offset="1" stop-color="#00a6a5"/>
    </linearGradient>
    <linearGradient id="ring-edge" x1="0" y1="0" x2="1" y2="1">
      <stop stop-color="#78fff0"/>
      <stop offset=".48" stop-color="#00edc5"/>
      <stop offset="1" stop-color="#00b8ad"/>
    </linearGradient>
    <linearGradient id="silver" gradientUnits="userSpaceOnUse" x1="525" y1="330" x2="708" y2="903">
      <stop stop-color="#ffffff"/>
      <stop offset=".45" stop-color="#edf3fa"/>
      <stop offset="1" stop-color="#b6cce2"/>
    </linearGradient>
    <linearGradient id="silver-edge" x1="0" y1="0" x2="1" y2="1">
      <stop stop-color="#ffffff"/>
      <stop offset="1" stop-color="#d4e2ee"/>
    </linearGradient>
    <filter id="shadow" x="-20%" y="-20%" width="140%" height="150%">
      <feDropShadow dx="0" dy="12" stdDeviation="12" flood-color="#00060b" flood-opacity=".6"/>
    </filter>
  </defs>
  <rect x="39" y="31" width="1176" height="1182" rx="310" fill="url(#bg)" stroke="#182938" stroke-width="2"/>
  <ellipse cx="627" cy="613" rx="535" ry="535" fill="url(#glow)"/>
  <g fill="url(#ring)" stroke="url(#ring-edge)" stroke-width="3" stroke-linejoin="round">
    <path d="M900 286 C824 216 730 185 634 186 C397 184 200 381 200 619 C199 681 213 743 240 796 L285 748 C269 709 260 665 260 619 C260 413 428 244 634 244 C698 244 757 260 809 288 Z"/>
    <path d="M1003 419 L960 466 C983 515 995 565 995 619 C995 819 831 981 629 981 C563 981 501 963 445 933 L352 933 C427 1001 525 1040 629 1040 C865 1040 1056 851 1056 619 C1056 547 1037 478 1003 419 Z"/>
  </g>
  <g fill="url(#silver)" stroke="url(#silver-edge)" stroke-width="2.5" stroke-linejoin="round" filter="url(#shadow)">
    <path d="M1011 327 H585 C501 327 436 368 391 433 C346 497 337 576 384 626 L394 636 L496 535 C482 498 522 448 573 448 H897 Q903 448 908 441 Z"/>
    <path d="M420 655 L521 553 Q527 547 539 548 H793 C826 548 854 554 875 566 L779 663 Q774 669 766 669 H489 C461 669 438 664 420 655 Z"/>
    <path d="M900 585 L800 686 C819 724 786 769 742 769 H354 Q347 769 341 776 L240 889 H713 C799 889 869 850 911 782 C954 712 949 638 900 585 Z"/>
  </g>
</svg>
